<svg width="390" height="390" viewBox="0 0 390 390" fill="none" xmlns="http://www.w3.org/2000/svg">
<path d="M301.899 208.307H244.051V181.693H301.899C421.226 181.693 402.412 100.582 344.715 43.271C286.784 -14.2906 208.432 -28.25 208.432 88.6642V146.309H181.568V88.6642C181.568 -28.25 103.216 -14.2739 45.2848 43.271C-12.3952 100.582 -31.2258 181.693 88.1012 181.693H145.949V208.307H88.1012C-31.2258 208.307 -12.412 289.418 45.2848 346.729C103.216 404.291 181.568 418.25 181.568 301.336V243.691H208.432V301.336C208.432 418.25 286.784 404.274 344.715 346.729C402.412 289.418 421.226 208.307 301.899 208.307ZM244.051 88.6642C244.051 60.5445 247.55 23.9387 283.252 41.3964C294.567 46.9366 307.222 56.0588 319.524 68.2942C331.827 80.5128 341.384 93.3675 347.393 105.118C366.04 141.556 332.798 146.309 301.899 146.309H244.051V88.6642ZM145.949 301.336C145.949 329.455 142.45 366.061 106.748 348.604C95.4325 343.08 82.7784 333.941 70.4591 321.706C58.1732 309.487 48.5989 296.632 42.5899 284.882C23.9435 248.444 57.1856 243.691 88.0844 243.691H145.932V301.336H145.949ZM88.1012 146.309C57.2024 146.309 23.9602 141.556 42.6066 105.118C48.6157 93.3675 58.1732 80.5128 70.4758 68.2942C82.7952 56.0588 95.4493 46.9199 106.764 41.3964C142.467 23.9387 145.965 60.5445 145.965 88.6642V146.309H88.1179H88.1012ZM181.568 208.307V181.693H208.432V208.307H181.568ZM347.393 284.882C341.384 296.632 331.827 309.487 319.524 321.706C307.205 333.941 294.551 343.08 283.252 348.604C247.55 366.061 244.051 329.455 244.051 301.336V243.691H301.899C332.798 243.691 366.04 248.444 347.393 284.882Z" fill="black"/>
</svg>
