<svg width="88" height="94" viewBox="0 0 88 94" fill="none" xmlns="http://www.w3.org/2000/svg">
<path d="M87.5425 43.4675C87.5425 63.2255 74.32 84.3665 56.3612 91.0842C54.1903 91.8745 51.8221 92.6648 49.4539 92.8624V26.0805L56.3612 33.3909V84.5641C72.1492 77.4512 83.5955 57.4957 83.5955 39.9111C83.5955 18.1773 65.834 0.395159 44.1255 0.395159C22.2196 0.395159 4.6555 18.1773 4.6555 39.9111C4.6555 57.4957 16.1018 77.4512 31.8898 84.5641V36.7498L38.797 29.4394V93.06C36.4288 92.6648 34.0606 92.0721 31.8898 91.2818C13.9309 84.1689 0.708496 63.2255 0.708496 43.4675C0.708496 19.3628 20.0488 0 44.1255 0C68.0048 0 87.5425 19.3628 87.5425 43.4675Z" fill="#009DC5"/>
<path d="M47.4805 35.1689V93.2573C46.2964 93.4549 45.1123 93.4549 44.1255 93.4549C42.9414 93.4549 41.7573 93.4549 40.7706 93.2573V37.3423L47.4805 35.1689Z" fill="#009DC5"/>
</svg>
